<svg version="1.1" id="Слой_1" xmlns="http://www.w3.org/2000/svg" x="0" y="0" viewBox="0 0 26.9 26.8" xml:space="preserve"><style>.st0{fill:#fff}</style><path d="M-2453.7-1753.4h-24c-.3 0-.5-.2-.5-.5s.2-.5.5-.5h24c.3 0 .5.2.5.5s-.2.5-.5.5zm-24.7-18.8c-.2 0-.3-.1-.4-.3-.1-.2 0-.5.2-.7l13-7.2 13 7.2c.2.1.3.4.2.7-.1.2-.4.3-.7.2l-12.5-6.9-12.5 6.9c-.2.1-.2.1-.3.1z" transform="translate(2479.094 1780.272)"/><path class="st0" d="M-2476.2-1764h21v6.8h-21z" transform="translate(2479.094 1780.272)"/><path d="M-2454.7-1756.7h-22v-7.8h22v7.8zm-21-1h20v-5.8h-20v5.8z" transform="translate(2479.094 1780.272)"/><path d="M-2474-1756.9h1v2.8h-1zm15.7 0h1v2.8h-1z" transform="translate(2479.094 1780.272)"/><path class="st0" d="M-2472.7-1768.5h14.1v7.1h-14.1z" transform="translate(2479.094 1780.272)"/><path d="M-2458.1-1760.8h-15.1v-8.1h15.1v8.1zm-14.1-1h13.1v-6.1h-13.1v6.1z" transform="translate(2479.094 1780.272)"/><path d="M-2466.2-1768.8h1v7.8h-1z" transform="translate(2479.094 1780.272)"/></svg>