<svg xmlns="http://www.w3.org/2000/svg" width="22.53" height="22.549" viewBox="0 0 22.53 22.549"><path d="M15.72 0H6.808A6.8 6.8 0 000 6.8v8.944a6.8 6.8 0 006.808 6.8h8.912a6.806 6.806 0 006.81-6.8V6.8A6.806 6.806 0 0015.72 0zm4.567 15.781a4.513 4.513 0 01-4.51 4.512H6.753a4.513 4.513 0 01-4.513-4.512V6.766a4.513 4.513 0 014.513-4.508h9.024a4.512 4.512 0 014.51 4.508z"/><path d="M18.439 5.428A1.272 1.272 0 0117.165 6.7a1.272 1.272 0 01-1.273-1.272 1.272 1.272 0 011.273-1.272 1.272 1.272 0 011.274 1.272zm-7.175.109a5.738 5.738 0 00-5.741 5.735 5.74 5.74 0 005.741 5.742 5.741 5.741 0 005.743-5.742 5.739 5.739 0 00-5.743-5.735zm0 9.217a3.483 3.483 0 01-3.482-3.482 3.477 3.477 0 013.482-3.474 3.473 3.473 0 013.481 3.474 3.479 3.479 0 01-3.481 3.482z"/></svg>