<svg xmlns="http://www.w3.org/2000/svg" width="23.673" height="24.217" viewBox="0 0 23.673 24.217"><path d="M21.545 23.685a1.223 1.223 0 00.255-.346v-.007l.007-.011 1.739-3.592a1.162 1.162 0 00-.2-1.333 1.147 1.147 0 00-.4-.271l-4.191-1.649a1.9 1.9 0 00-2.032.4 1.9 1.9 0 00-.522.893c-1.6.362-4.314-.974-6.66-3.407-2.382-2.474-3.617-5.289-3.136-6.859a1.874 1.874 0 00.837-.47 1.907 1.907 0 00.472-2.014L6.221.768a1.139 1.139 0 00-.253-.406A1.16 1.16 0 004.643.114L.99 1.714H.969a1.246 1.246 0 00-.355.241 1.26 1.26 0 00-.315.49l-.005.016c0 .009-.007.018-.009.027-1.172 3.4 1.32 9.419 6.336 14.626s10.952 7.931 14.394 6.873a1.257 1.257 0 00.53-.302z"/></svg>