<svg xmlns="http://www.w3.org/2000/svg" width="87.149" height="32" viewBox="0 0 87.149 32"><path d="M63.01 10.626c0 6.053-3.844 10.141-9.543 10.141-5.752 0-9.594-4.061-9.594-10.141 0-6.154 3.818-10.19 9.622-10.19 5.671 0 9.515 4.113 9.515 10.19m-14.829-.077c0 4.168 2.017 6.675 5.314 6.706 3.218 0 5.209-2.567 5.209-6.706 0-4.089-2.018-6.627-5.259-6.627-3.221 0-5.264 2.591-5.264 6.627"/><path d="M53.467 20.918c-5.83 0-9.742-4.136-9.742-10.289 0-6.283 3.836-10.344 9.772-10.344 5.778 0 9.661 4.159 9.661 10.344 0 6.153-3.893 10.289-9.691 10.289m.03-20.335c-5.754 0-9.474 3.945-9.474 10.046 0 5.976 3.8 9.989 9.444 9.989 5.62 0 9.392-4.013 9.392-9.989 0-6.008-3.762-10.046-9.362-10.046m0 16.82c-3.423-.032-5.466-2.6-5.466-6.854 0-4.12 2.125-6.774 5.414-6.774 3.335 0 5.406 2.594 5.406 6.774 0 4.227-2.051 6.854-5.354 6.854m-.052-13.332c-3.107 0-5.116 2.542-5.116 6.478 0 4.073 1.933 6.527 5.17 6.555 3.119 0 5.053-2.51 5.053-6.555 0-4-1.957-6.478-5.107-6.478"/><path d="M53.467 21.051c-5.906 0-9.876-4.188-9.876-10.422 0-6.268 3.981-10.482 9.906-10.482 5.859 0 9.8 4.214 9.8 10.482 0 6.234-3.949 10.422-9.828 10.422m.03-20.332c-5.675 0-9.337 3.889-9.337 9.91 0 5.9 3.739 9.855 9.307 9.855 5.537 0 9.257-3.96 9.257-9.855 0-5.927-3.706-9.91-9.227-9.91m0 16.821c-3.456-.032-5.6-2.716-5.6-6.991 0-4.2 2.177-6.913 5.548-6.913 3.417 0 5.542 2.646 5.542 6.913 0 4.311-2.1 6.991-5.49 6.991m-.052-13.332c-3.071 0-4.98 2.428-4.98 6.341 0 3.991 1.881 6.39 5.034 6.421 3.034 0 4.921-2.461 4.921-6.421 0-3.913-1.907-6.341-4.975-6.341"/><path d="M53.467 21.201c-6 0-10.025-4.248-10.025-10.575C43.442 4.272 47.482 0 53.497 0c5.947 0 9.947 4.272 9.947 10.626 0 6.327-4.01 10.575-9.977 10.575m.03-20.9c-5.836 0-9.759 4.15-9.759 10.328 0 6.149 3.911 10.277 9.729 10.277 5.79 0 9.68-4.128 9.68-10.277 0-6.178-3.879-10.328-9.65-10.328m-.03 20.335c-5.656 0-9.457-4.02-9.457-10.007 0-6.106 3.724-10.056 9.487-10.056 5.609 0 9.376 4.042 9.376 10.056 0 5.987-3.779 10.007-9.406 10.007m.03-19.767c-5.582 0-9.189 3.833-9.189 9.76 0 5.808 3.682 9.708 9.159 9.708 5.449 0 9.109-3.9 9.109-9.708 0-5.834-3.649-9.76-9.079-9.76m0 16.825c-3.545-.038-5.749-2.775-5.749-7.142 0-4.29 2.235-7.059 5.7-7.059 3.511 0 5.693 2.7 5.693 7.059 0 4.4-2.163 7.142-5.641 7.142m-.052-13.9c-3.282 0-5.4 2.652-5.4 6.762 0 4.187 2.089 6.81 5.451 6.842 3.295 0 5.342-2.625 5.342-6.842 0-4.172-2.068-6.762-5.394-6.762m.054 13.331c-3.245-.031-5.183-2.488-5.183-6.569 0-4 1.965-6.491 5.129-6.491s5.122 2.488 5.122 6.491c0 4.052-1.94 6.569-5.068 6.569m-.054-12.762c-2.981 0-4.83 2.372-4.83 6.193 0 3.9 1.827 6.243 4.887 6.273 2.94 0 4.766-2.4 4.766-6.273 0-3.821-1.848-6.193-4.823-6.193"/><path d="M10.698 6.85h-.054l-2.113 6.257a.193.193 0 00.026.179.189.189 0 00.161.084h3.88a.191.191 0 00.161-.084.2.2 0 00.025-.179zM6.925 17.571L5.609 20.88a.188.188 0 01-.182.125H.198a.19.19 0 01-.163-.087.189.189 0 01-.022-.181L7.74.645a.2.2 0 01.186-.128h5.543a.192.192 0 01.184.128l7.568 20.092a.194.194 0 01-.021.181.193.193 0 01-.165.087h-5.254a.192.192 0 01-.184-.131l-1.241-3.3a.186.186 0 00-.181-.128H7.11a.2.2 0 00-.185.125M67.133.517h4.971a.193.193 0 01.156.076l9.576 12.449h.055V.717a.2.2 0 01.2-.2h4.87a.2.2 0 01.192.2v20.09a.194.194 0 01-.192.2h-4.969a.178.178 0 01-.154-.077L72.261 8.455h-.056v12.354a.2.2 0 01-.2.2h-4.87a.193.193 0 01-.191-.2V.719a.194.194 0 01.191-.2M40.121 4.605a.327.327 0 00.327-.326V.842a.326.326 0 00-.327-.325H25.399a.326.326 0 00-.326.325v19.836a.327.327 0 00.326.327h14.722a.326.326 0 00.327-.327v-3.437a.328.328 0 00-.327-.324h-9.378a.325.325 0 01-.325-.324v-3.7a.325.325 0 01.325-.324h7.534a.329.329 0 00.327-.328V8.805a.326.326 0 00-.327-.325h-7.534a.325.325 0 01-.325-.325V4.933a.327.327 0 01.325-.326z" fill-rule="evenodd"/><path d="M4.689 30.053a1.384 1.384 0 01-.048.361 2.162 2.162 0 01-.144.364 2.1 2.1 0 01-.477.6 2.277 2.277 0 01-.71.416 2.488 2.488 0 01-.862.152h-.1a2.747 2.747 0 01-.519-.046 2.636 2.636 0 01-.479-.139 2.073 2.073 0 01-.733-.467 1.948 1.948 0 01-.459-.729 2.808 2.808 0 01-.156-.965 3.206 3.206 0 01.176-1.115 2.136 2.136 0 01.494-.785 2.043 2.043 0 01.733-.455 2.685 2.685 0 01.892-.146 2.622 2.622 0 011.4.322 1.788 1.788 0 01.714.744 2.552 2.552 0 01.232.83H3.194c-.157-.5-.419-.75-.787-.75h-.059a.607.607 0 00-.437.186 1.121 1.121 0 00-.285.489 2.059 2.059 0 00-.1.624 1.943 1.943 0 00.1.618 1.069 1.069 0 00.293.463.693.693 0 00.479.174.821.821 0 00.5-.171.867.867 0 00.3-.58zm6.286 1.792H9.428v-4.59h1.547v4.59zm8.678-3.348h-1.352v3.348h-1.547v-3.348H15.41v-1.242h4.242zm9.261-1.242l-1.744 2.943v1.648h-1.5v-1.648l-1.7-2.943h1.7l.748 1.495.749-1.495zm13.081 4.59h-3.838v-4.543h3.738v1.1h-2.193v.595h1.846v1.1h-1.846v.652h2.293zm9.211-1.425a1.3 1.3 0 01-.294.838 1.82 1.82 0 01-.763.551 2.622 2.622 0 01-.994.191 3.254 3.254 0 01-1.065-.168 1.7 1.7 0 01-.788-.528 1.382 1.382 0 01-.3-.9h1.449a.669.669 0 00.748.5.549.549 0 00.357-.109.3.3 0 00.134-.24c0-.139-.1-.24-.292-.3l-.364-.092c-.12-.031-.266-.07-.435-.117s-.317-.093-.44-.138a2.315 2.315 0 01-.355-.157 1.429 1.429 0 01-.522-.443 1.15 1.15 0 01-.2-.686 1.687 1.687 0 01.024-.26 1.325 1.325 0 01.166-.48 1.391 1.391 0 01.361-.4 1.747 1.747 0 01.546-.271 2.483 2.483 0 01.73-.1h.139a2.544 2.544 0 011.344.336 1.471 1.471 0 01.656 1.161H49.6a.385.385 0 00-.222-.3.872.872 0 00-.446-.117c-.214 0-.34.056-.379.172a.221.221 0 00-.01.075c0 .2.3.351.907.468a3.031 3.031 0 011.272.5 1.263 1.263 0 01.352.413 1.13 1.13 0 01.126.538zm9.053-1.923h-1.353v3.348h-1.544v-3.348h-1.348v-1.242h4.244zm9.356 3.348h-1.546l-.154-.595h-1.493l-.155.595h-1.546l1.158-3.241.488-1.349h1.6l1.159 3.239zm-2-1.545l-.449-1.5-.451 1.5zm10.704-1.803H76.97v3.348h-1.549v-3.348h-1.346v-1.242h4.242zm8.829 3.348h-3.837v-4.543h3.737v1.1h-2.193v.595h1.848v1.1h-1.848v.652h2.293z"/></svg>