<?xml version="1.0" encoding="utf-8"?>
<!-- Generator: Adobe Illustrator 23.0.0, SVG Export Plug-In . SVG Version: 6.00 Build 0)  -->
<svg version="1.1" id="Слой_1" xmlns="http://www.w3.org/2000/svg" xmlns:xlink="http://www.w3.org/1999/xlink" x="0px" y="0px"
	 viewBox="0 0 26.9 26.8" style="enable-background:new 0 0 26.9 26.8;" xml:space="preserve">
<style type="text/css">
	.st0{fill:#FFFFFF;}
</style>
<g transform="translate(2479.094 1780.272)">
	<g>
		<path d="M-2453.7-1753.4h-24c-0.3,0-0.5-0.2-0.5-0.5s0.2-0.5,0.5-0.5h24c0.3,0,0.5,0.2,0.5,0.5S-2453.4-1753.4-2453.7-1753.4z"/>
	</g>
	<g>
		<path d="M-2478.4-1772.2c-0.2,0-0.3-0.1-0.4-0.3c-0.1-0.2,0-0.5,0.2-0.7l13-7.2l13,7.2c0.2,0.1,0.3,0.4,0.2,0.7
			c-0.1,0.2-0.4,0.3-0.7,0.2l-12.5-6.9l-12.5,6.9C-2478.3-1772.2-2478.3-1772.2-2478.4-1772.2z"/>
	</g>
	<g>
		<rect x="-2476.2" y="-1764" class="st0" width="21" height="6.8"/>
		<path d="M-2454.7-1756.7h-22v-7.8h22V-1756.7z M-2475.7-1757.7h20v-5.8h-20V-1757.7z"/>
	</g>
	<g>
		<rect x="-2474" y="-1756.9" width="1" height="2.8"/>
	</g>
	<g>
		<rect x="-2458.3" y="-1756.9" width="1" height="2.8"/>
	</g>
	<g>
		<rect x="-2472.7" y="-1768.5" class="st0" width="14.1" height="7.1"/>
		<path d="M-2458.1-1760.8h-15.1v-8.1h15.1V-1760.8z M-2472.2-1761.8h13.1v-6.1h-13.1V-1761.8z"/>
	</g>
	<g>
		<rect x="-2466.2" y="-1768.8" width="1" height="7.8"/>
	</g>
</g>
</svg>
