<?xml version="1.0" encoding="utf-8"?>
<!-- Generator: Adobe Illustrator 23.0.0, SVG Export Plug-In . SVG Version: 6.00 Build 0)  -->
<svg version="1.1" id="Слой_1" xmlns="http://www.w3.org/2000/svg" xmlns:xlink="http://www.w3.org/1999/xlink" x="0px" y="0px"
	 viewBox="0 0 20.4 17.9" style="enable-background:new 0 0 20.4 17.9;" xml:space="preserve">
<g id="heart" transform="translate(2475.874 1692.138)">
	<g id="heart-4">
		<path d="M-2465.7-1674.2l-0.3-0.3c-1-0.9-9.9-8.9-9.9-11.9c0-3.2,2.6-5.7,5.7-5.7c1.8,0,3.4,0.8,4.5,2.2c1.1-1.4,2.7-2.2,4.5-2.2
			h0c3.2,0,5.7,2.6,5.7,5.7c0,3-8.9,11-9.9,11.9L-2465.7-1674.2z M-2470.2-1691.1c-2.6,0-4.7,2.1-4.7,4.7c0,1.9,5.5,7.5,9.2,10.8
			c3.7-3.3,9.2-9,9.2-10.8c0-2.6-2.1-4.7-4.7-4.7l0-0.5l0,0.5c-1.7,0-3.3,0.9-4.1,2.4l-0.4,0.8l-0.4-0.8
			C-2466.9-1690.2-2468.5-1691.1-2470.2-1691.1z"/>
	</g>
</g>
</svg>
