<?xml version="1.0" encoding="utf-8"?>
<!-- Generator: Adobe Illustrator 23.0.0, SVG Export Plug-In . SVG Version: 6.00 Build 0)  -->
<svg version="1.1" id="Слой_1" xmlns="http://www.w3.org/2000/svg" xmlns:xlink="http://www.w3.org/1999/xlink" x="0px" y="0px"
	 viewBox="0 0 20.7 33.5" style="enable-background:new 0 0 20.7 33.5;" xml:space="preserve">
<g id="house" transform="translate(2475.995 1840.902)">
	<g id="Path_5">
		<path d="M-2455.3-1807.4h-20.7v-27.8l10.4-5.6l10.3,5.6V-1807.4z M-2475-1808.4h18.7v-26.3l-9.3-5.1l-9.4,5.1V-1808.4z"/>
	</g>
	<g id="Group_4">
		<g id="Rectangle_3">
			<path d="M-2467.1-1827.5h-5v-5h5V-1827.5z M-2471-1828.5h3v-3h-3V-1828.5z"/>
		</g>
		<g id="Rectangle_4">
			<path d="M-2467.1-1819.5h-5v-5h5V-1819.5z M-2471-1820.5h3v-3h-3V-1820.5z"/>
		</g>
		<g id="Rectangle_5">
			<path d="M-2467.1-1811.4h-5v-5h5V-1811.4z M-2471-1812.4h3v-3h-3V-1812.4z"/>
		</g>
		<g id="Rectangle_6">
			<path d="M-2459.3-1827.5h-5v-5h5V-1827.5z M-2463.3-1828.5h3v-3h-3V-1828.5z"/>
		</g>
		<g id="Rectangle_7">
			<path d="M-2459.3-1819.5h-5v-5h5V-1819.5z M-2463.3-1820.5h3v-3h-3V-1820.5z"/>
		</g>
		<g id="Rectangle_8">
			<path d="M-2459.3-1811.4h-5v-5h5V-1811.4z M-2463.3-1812.4h3v-3h-3V-1812.4z"/>
		</g>
	</g>
</g>
</svg>
