<svg xmlns="http://www.w3.org/2000/svg" width="22.53" height="22.549" viewBox="0 0 22.53 22.549"><g transform="translate(2476.92 1468.573)"><path d="M-2461.2-1468.573h-8.912a6.8,6.8,0,0,0-6.808,6.8v8.944a6.8,6.8,0,0,0,6.808,6.8h8.912a6.806,6.806,0,0,0,6.81-6.8v-8.944A6.806,6.806,0,0,0-2461.2-1468.573Zm4.567,15.781a4.513,4.513,0,0,1-4.51,4.512h-9.024a4.513,4.513,0,0,1-4.513-4.512v-9.015a4.513,4.513,0,0,1,4.513-4.508h9.024a4.512,4.512,0,0,1,4.51,4.508Z"/><path d="M-2458.481-1463.145a1.272,1.272,0,0,1-1.274,1.272,1.272,1.272,0,0,1-1.273-1.272,1.272,1.272,0,0,1,1.273-1.272A1.272,1.272,0,0,1-2458.481-1463.145Z"/><path d="M-2465.656-1463.036a5.738,5.738,0,0,0-5.741,5.735,5.74,5.74,0,0,0,5.741,5.742,5.741,5.741,0,0,0,5.743-5.742A5.739,5.739,0,0,0-2465.656-1463.036Zm0,9.217a3.483,3.483,0,0,1-3.482-3.482,3.477,3.477,0,0,1,3.482-3.474,3.473,3.473,0,0,1,3.481,3.474A3.479,3.479,0,0,1-2465.656-1453.819Z"/></g></svg>