<svg xmlns="http://www.w3.org/2000/svg" width="23.673" height="24.217" viewBox="0 0 23.673 24.217"><path d="M-2455.946-2000.66a1.223,1.223,0,0,0,.255-.346h0l0-.007.007-.011,1.739-3.592a1.162,1.162,0,0,0-.2-1.333,1.147,1.147,0,0,0-.4-.271h0l-4.191-1.649a1.9,1.9,0,0,0-2.032.4,1.9,1.9,0,0,0-.522.893c-1.6.362-4.314-.974-6.66-3.407-2.382-2.474-3.617-5.289-3.136-6.859a1.874,1.874,0,0,0,.837-.47,1.907,1.907,0,0,0,.472-2.014l-1.493-4.251h0a1.139,1.139,0,0,0-.253-.406,1.16,1.16,0,0,0-1.325-.248l-3.653,1.6-.015,0-.006,0h0a1.246,1.246,0,0,0-.355.241,1.26,1.26,0,0,0-.315.49h0l-.005.016c0,.009-.007.018-.009.027-1.172,3.4,1.32,9.419,6.336,14.626s10.952,7.931,14.394,6.873h0A1.257,1.257,0,0,0-2455.946-2000.66Z" transform="translate(2477.491 2024.345)"/></svg>