<?xml version="1.0" encoding="utf-8"?>
<!-- Generator: Adobe Illustrator 23.0.0, SVG Export Plug-In . SVG Version: 6.00 Build 0)  -->
<svg version="1.1" id="Слой_1" xmlns="http://www.w3.org/2000/svg" xmlns:xlink="http://www.w3.org/1999/xlink" x="0px" y="0px"
	 viewBox="0 0 20 19" style="enable-background:new 0 0 20 19;" xml:space="preserve">
<style type="text/css">
	.st0{fill:#2EBCE9;}
</style>
<g id="star-fluid">
	<path class="st0" d="M10,1.1l2.8,5.6l6.2,0.9l-4.5,4.3l1.1,6.1L10,15.2l-5.5,2.9l1.1-6.1L1.1,7.6l6.2-0.9L10,1.1z"/>
	<path class="st0" d="M3.8,19L5,12.1L0,7.3l6.9-1L10,0l3.1,6.3l6.9,1l-5,4.9l1.2,6.9L10,15.8L3.8,19z M10,14.6l4.8,2.5l-0.9-5.4
		L17.8,8l-5.4-0.8L10,2.3L7.6,7.2L2.2,8l3.9,3.8l-0.9,5.4L10,14.6z"/>
</g>
</svg>
